<svg xmlns="http://www.w3.org/2000/svg" version="1.1" xmlns:xlink="http://www.w3.org/1999/xlink" xmlns:svgjs="http://svgjs.com/svgjs" width="3000" height="7505" preserveAspectRatio="none" viewBox="0 0 3000 7505"><g mask="url(&quot;#SvgjsMask1019&quot;)" fill="none"><path d="M750 157.89C700.64 47.02 550 44.23 550 0C550 -34.72 650 0 750 0C1125 0 1125 0 1500 0C1875 0 1875 0 2250 0C2563.64 0 2585.39 -50.52 2877.27 0C2960.39 14.39 2986.28 45.95 3000 129.81C3047.64 420.95 3000 439.9 3000 750C3000 1028.01 3136.18 1306.03 3000 1306.03C2777.84 1306.03 2640.35 1029.56 2283.33 750C2265.35 735.92 2264.92 718.75 2250 718.75C2237.69 718.75 2243.26 737.85 2228.87 750C1868.26 1054.35 1859.6 1045.49 1500 1351.74C1419.27 1420.49 1348.21 1403.44 1348.21 1500C1348.21 1813.1 1299.26 2114.13 1500 2171.05C1750.15 2241.97 1851.23 1889.44 2250 1755.68C2601.23 1637.87 2788.24 1528.34 3000 1667.91C3163.24 1775.5 3000 1958.95 3000 2250C3000 2625 3000 2625 3000 3000C3000 3351.57 3058.85 3394.19 3000 3703.13C2987.42 3769.19 2911.84 3700.08 2857.14 3750C2536.84 4042.27 2616.29 4207.85 2250 4387.5C1937.72 4540.66 1811.76 4558.45 1500 4415.63C1115.98 4239.7 1171.98 4088.96 858.43 3750C796.98 3683.57 832.88 3608.86 750 3604.84C403.67 3588.03 193.74 3864.57 0 3708.33C-181.26 3562.15 0 3354.16 0 3000C0 2625 0 2625 0 2250C0 2072.37 -22.71 2069.61 0 1894.74C25.99 1694.61 -19.72 1657.34 97.4 1500C355.28 1153.57 426.1 1196.05 750 887.2C819.37 821.05 883.93 837.53 883.93 750C883.93 472.87 867.6 422.02 750 157.89" stroke="rgba(170, 170, 170, 1)" stroke-width="2"></path><path d="M1500 2350C1296.61 2422.73 1345.24 2702.96 1345.24 3000C1345.24 3086 1412.82 3075.3 1500 3116.07C1865.2 3286.84 1948.62 3459.86 2250 3423.08C2424.23 3401.82 2451.22 3205.88 2451.22 3000C2451.22 2832.57 2401.14 2779.75 2250 2676.47C1925.53 2454.75 1748.99 2260.96 1500 2350" stroke="rgba(170, 170, 170, 1)" stroke-width="2"></path><path d="M0 3785.16C191.28 3785.16 389.88 4111.1 663.04 4500C764.88 4644.99 617.09 4831.5 750 4852.94C1035.57 4899 1193.22 4535.41 1500 4635C1804.76 4733.94 1713.33 4966.16 1973.08 5250C2088.33 5375.94 2106.72 5454.55 2250 5454.55C2414.99 5454.55 2439.19 5376.57 2589.62 5250C2814.19 5061.06 2880.74 4823.53 3000 4823.53C3085.93 4823.53 3000 5036.76 3000 5250C3000 5467.5 3050.35 5481.21 3000 5685C2957.7 5856.21 2814.71 5839.56 2814.71 6000C2814.71 6180.2 2952.12 6172.46 3000 6366.28C3044.76 6547.46 3000 6558.14 3000 6750C3000 7125 3000 7125 3000 7500C3000 7875 3187.5 8062.5 3000 8250C2812.5 8437.5 2625 8250 2250 8250C1875 8250 1875 8250 1500 8250C1188.83 8250 1171.43 8295.19 877.66 8250C796.43 8237.5 807.18 8134.62 750 8134.62C703.35 8134.62 734.97 8240.01 670 8250C359.97 8297.7 158.06 8426.94 0 8250C-176.94 8051.94 0 7875 0 7500C0 7125 0 7125 0 6750C0 6375 0 6375 0 6000C0 5625 0 5625 0 5250C0 4875 0 4875 0 4500C0 4142.58 -140.24 3785.16 0 3785.16" stroke="rgba(170, 170, 170, 1)" stroke-width="2"></path><path d="M750 5769.23C655.26 5777.09 733.28 5887.57 696.43 6000C572.56 6377.95 409.7 6454.04 428.57 6750C436.48 6874.04 605.8 6840 750 6840C796.92 6840 773.68 6789.53 810.81 6750C1148.68 6390.36 1154.56 6394.97 1500 6041.67C1521.21 6019.97 1544.12 6023.38 1544.12 6000C1544.12 5969.21 1537.45 5944.21 1500 5933.33C1140.39 5828.83 1057.04 5743.76 750 5769.23" stroke="rgba(200, 200, 200, 1)" stroke-width="2"></path><path d="M1107.14 750C1182.95 416.98 885.35 226.57 1004.03 0C1081.78 -148.43 1252.01 0 1500 0C1875 0 1875 0 2250 0C2393.18 0 2536.36 -65.08 2536.36 0C2536.36 98.98 2381.74 155.25 2250 328.12C2095.95 530.25 2136.53 565.53 1964.79 750C1761.53 968.33 1724.58 933.16 1500 1133.72C1304.68 1308.16 1231.32 1272.95 1125 1500C969.96 1831.09 996.76 1872.25 977.27 2250C958.07 2622.25 1120.31 2663.39 1047.62 3000C1006.68 3189.6 938.9 3237.31 750 3302.42C415.09 3417.86 253.38 3463.28 0 3361.11C-121.62 3312.07 0 3180.56 0 3000C0 2767.85 -106.39 2708.59 0 2535.71C124.38 2333.59 390.5 2465.82 461.54 2250C560.96 1947.97 257.96 1826.14 340.91 1500C402.19 1259.06 549.53 1312.08 750 1115.85C932.64 937.08 1055.94 974.9 1107.14 750" stroke="rgba(200, 200, 200, 1)" stroke-width="2"></path><path d="M2700 750C2700 624.2 2909.33 490.38 3000 490.38C3059.33 490.38 3000 620.19 3000 750C3000 866.38 3057.01 982.76 3000 982.76C2907.01 982.76 2700 870.39 2700 750" stroke="rgba(170, 170, 170, 1)" stroke-width="2"></path><path d="M2138.89 2250C2138.89 2217.67 2188.73 2203.33 2250 2181.82C2619.28 2052.21 2729.18 1923.14 3000 1947.76C3104.18 1957.23 3000 2098.88 3000 2250C3000 2625 3000 2625 3000 3000C3000 3205.08 3070.56 3410.16 3000 3410.16C2910.5 3410.16 2826.11 3214.74 2679.88 3000C2451.11 2664.07 2484.31 2633.65 2250 2308.82C2213.81 2258.65 2138.89 2281.17 2138.89 2250" stroke="rgba(200, 200, 200, 1)" stroke-width="2"></path><path d="M1084.34 3750C1084.34 3542.11 1270.73 3339.29 1500 3339.29C1798 3339.29 2138.89 3541.06 2138.89 3750C2138.89 3962.04 1796.71 4181.25 1500 4181.25C1269.44 4181.25 1084.34 3963.09 1084.34 3750" stroke="rgba(170, 170, 170, 1)" stroke-width="2"></path><path d="M0 4078.13C112.89 4078.13 391.3 4282.6 391.3 4500C391.3 4734.61 110.13 4982.14 0 4982.14C-85.52 4982.14 0 4741.07 0 4500C0 4289.07 -82.76 4078.13 0 4078.13" stroke="rgba(200, 200, 200, 1)" stroke-width="2"></path><path d="M1125 5250C1125 5125.42 1333.46 5010 1500 5010C1613.27 5010 1684.62 5127.68 1684.62 5250C1684.62 5381.02 1615.69 5516.67 1500 5516.67C1335.88 5516.67 1125 5378.76 1125 5250" stroke="rgba(170, 170, 170, 1)" stroke-width="2"></path><path d="M2943.4 5250C2943.4 5220.45 2983.55 5191.18 3000 5191.18C3011.85 5191.18 3000 5220.59 3000 5250C3000 5280 3011.92 5310 3000 5310C2983.62 5310 2943.4 5279.86 2943.4 5250" stroke="rgba(200, 200, 200, 1)" stroke-width="2"></path><path d="M0 5569.15C102.38 5569.15 361.61 5781.66 361.61 6000C361.61 6227.2 101.22 6460.23 0 6460.23C-79.59 6460.23 0 6230.11 0 6000C0 5784.58 -78.42 5569.15 0 5569.15" stroke="rgba(170, 170, 170, 1)" stroke-width="2"></path><path d="M1819.85 6000C2027.11 5824.67 2044.09 5667.61 2250 5667.61C2431.22 5667.61 2468.46 5801.1 2594.12 6000C2810.37 6342.29 2761.8 6376.04 2933.82 6750C2964.74 6817.21 2993.6 6809.87 3000 6882.35C3026.69 7184.87 3000 7191.17 3000 7500C3000 7875 3187.5 8062.5 3000 8250C2812.5 8437.5 2625 8250 2250 8250C1875 8250 1875 8250 1500 8250C1388.3 8250 1366.37 8306.97 1276.6 8250C991.37 8068.99 985.86 7774.04 750 7774.04C557.56 7774.04 637.37 8112.05 420 8250C262.37 8350.03 75.38 8384.62 0 8250C-134.62 8009.62 0 7875 0 7500C0 7414.77 -68.79 7355.69 0 7329.55C306.21 7213.19 444.14 7381.57 750 7215C976.24 7091.79 886.77 6965.96 1064.19 6750C1261.77 6509.5 1278.27 6522.15 1500 6302.08C1656.1 6147.15 1652.11 6141.9 1819.85 6000" stroke="rgba(170, 170, 170, 1)" stroke-width="2"></path><path d="M2250 7165.18C2032.1 7165.18 1823.86 7335.27 1823.86 7500C1823.86 7661.58 2032.42 7817.8 2250 7817.8C2485.88 7817.8 2730.77 7661.81 2730.77 7500C2730.77 7335.5 2485.56 7165.18 2250 7165.18" stroke="rgba(170, 170, 170, 1)" stroke-width="2"></path><path d="M1330.36 750C1256.82 402.1 1239.02 298.11 1306.45 0C1323.84 -76.89 1403.22 0 1500 0C1800 0 2058.47 -155.21 2100 0C2158.82 219.79 1930.35 399.51 1700.7 750C1630.35 857.36 1596.89 915.7 1500 915.7C1411.72 915.7 1353.6 859.95 1330.36 750" stroke="rgba(200, 200, 200, 1)" stroke-width="2"></path><path d="M584.42 1500C584.42 1404.48 668.9 1344.51 750 1344.51C827.58 1344.51 901.79 1406.5 901.79 1500C901.79 1683.46 828.87 1898.44 750 1898.44C670.19 1898.44 584.42 1681.45 584.42 1500" stroke="rgba(200, 200, 200, 1)" stroke-width="2"></path><path d="M2934.78 2250C2938.63 2217.5 2975.38 2227.61 3000 2227.61C3007.99 2227.61 3000 2238.81 3000 2250C3000 2625 3000 2625 3000 3000C3000 3058.6 3020.16 3117.19 3000 3117.19C2974.43 3117.19 2913.93 3071.69 2908.54 3000C2881.32 2638.09 2892.9 2603.7 2934.78 2250" stroke="rgba(170, 170, 170, 1)" stroke-width="2"></path><path d="M0 2982.14C366.28 2982.14 750 2992.06 750 3000C750 3007.94 368.18 3013.89 0 3013.89C-6.82 3013.89 0 3006.94 0 3000C0 2991.07 -8.72 2982.14 0 2982.14" stroke="rgba(170, 170, 170, 1)" stroke-width="2"></path><path d="M1310.24 3750C1310.24 3655.09 1395.33 3562.5 1500 3562.5C1636.05 3562.5 1791.67 3654.61 1791.67 3750C1791.67 3846.8 1635.46 3946.88 1500 3946.88C1394.74 3946.88 1310.24 3847.28 1310.24 3750" stroke="rgba(170, 170, 170, 1)" stroke-width="2"></path><path d="M0 4371.09C34.49 4371.09 119.57 4433.57 119.57 4500C119.57 4571.69 33.65 4647.32 0 4647.32C-26.13 4647.32 0 4573.66 0 4500C0 4435.55 -25.29 4371.09 0 4371.09" stroke="rgba(170, 170, 170, 1)" stroke-width="2"></path><path d="M0 5968.09C7.59 5968.09 26.79 5983.83 26.79 6000C26.79 6016.83 7.5 6034.09 0 6034.09C-5.9 6034.09 0 6017.05 0 6000C0 5984.05 -5.81 5968.09 0 5968.09" stroke="rgba(200, 200, 200, 1)" stroke-width="2"></path><path d="M2095.59 6000C2167.73 5934.42 2176.08 5880.68 2250 5880.68C2315.05 5880.68 2361.2 5919.02 2373.53 6000C2427.38 6353.68 2433.55 6405.86 2382.35 6750C2371.78 6821.04 2315.28 6788.74 2250 6830.36C1874.1 7069.99 1780.31 7336.66 1500 7312.5C1314.09 7296.48 1317.57 7009.99 1317.57 6750C1317.57 6634.99 1405.84 6653.26 1500 6562.5C1794.85 6278.26 1792.73 6275.33 2095.59 6000" stroke="rgba(200, 200, 200, 1)" stroke-width="2"></path><path d="M0 7905.41C44.81 7905.41 170 8130.55 170 8250C170 8302.85 28.08 8306.92 0 8250C-56.92 8134.62 -40.19 7905.41 0 7905.41" stroke="rgba(200, 200, 200, 1)" stroke-width="2"></path><path d="M1912.5 8250C1912.5 8220.62 2082.35 8195.91 2250 8135.59C2626.1 8000.26 2748.23 7820.29 3000 7858.7C3123.23 7877.5 3128.57 8182.92 3000 8250C2753.57 8378.57 2625 8250 2250 8250C2081.25 8250 1912.5 8277.82 1912.5 8250" stroke="rgba(200, 200, 200, 1)" stroke-width="2"></path></g><defs><mask id="SvgjsMask1019"><rect width="3000" height="7505" fill="#ffffff"></rect></mask></defs></svg>