<svg xmlns="http://www.w3.org/2000/svg" version="1.1" xmlns:xlink="http://www.w3.org/1999/xlink" xmlns:svgjs="http://svgjs.com/svgjs" width="3000" height="10000" preserveAspectRatio="none" viewBox="0 0 3000 10000"><g mask="url(&quot;#SvgjsMask1007&quot;)" fill="none"><path d="M0 52.08C2.96 14.21 20.4 2.65 58.59 0C395.4 -23.39 404.3 0 750 0C1090.38 0 1105.88 -34.2 1430.77 0C1480.88 5.28 1449.8 77.37 1500 78.95C1859.42 90.3 1879.22 63.26 2250 25.86C2270.52 23.79 2262.05 0.71 2282.61 0C2637.05 -12.22 2824.64 -183.33 3000 0C3183.33 191.67 3000 375 3000 750C3000 1125 3000 1125 3000 1500C3000 1875 3000 1875 3000 2250C3000 2625 3000 2625 3000 3000C3000 3375 3000 3375 3000 3750C3000 4125 3000 4125 3000 4500C3000 4875 3000 4875 3000 5250C3000 5625 3000 5625 3000 6000C3000 6375 3000 6375 3000 6750C3000 7033.24 3100.71 7093.18 3000 7316.49C2931.59 7468.18 2669.51 7348.94 2661.76 7500C2645.57 7815.7 2812.19 7873.21 2952.13 8250C2981.31 8328.56 2994.7 8327.64 3000 8410.71C3018.63 8702.64 3000 8705.35 3000 9000C3000 9375 3000 9375 3000 9750C3000 10125 3187.5 10312.5 3000 10500C2812.5 10687.5 2625 10500 2250 10500C1875 10500 1875 10500 1500 10500C1125 10500 1125 10500 750 10500C429.55 10500 399.92 10558.17 109.09 10500C24.92 10483.17 12.88 10438.55 0 10350C-41.67 10063.55 0 10050 0 9750C0 9464.28 -43.91 9450.81 0 9178.57C16.57 9075.81 120.97 9092.12 120.97 9000C120.97 8892.54 19.48 8900.21 0 8779.41C-41 8525.21 0 8514.71 0 8250C0 7875 0 7875 0 7500C0 7125 0 7125 0 6750C0 6375 0 6375 0 6000C0 5625 0 5625 0 5250C0 5095.59 -23.29 5092.59 0 4941.18C34.4 4717.59 115.38 4706.69 115.38 4500C115.38 4421.45 12.59 4452.54 0 4370.69C-45.1 4077.54 0 4060.34 0 3750C0 3506.76 -74.61 3475.85 0 3263.51C57.15 3100.85 263.51 3137.04 263.51 3000C263.51 2850.52 63.23 2870.46 0 2690.48C-68.52 2495.46 0 2470.24 0 2250C0 1875 0 1875 0 1500C0 1125 0 1125 0 750C0 401.04 -26.34 389.21 0 52.08" stroke="rgba(170, 170, 170, 1)" stroke-width="2"></path><path d="M2250 1416.67C2205.81 1416.67 2167.97 1458.17 2167.97 1500C2167.97 1542.18 2205.75 1584.68 2250 1584.68C2302.61 1584.68 2361.7 1542.12 2361.7 1500C2361.7 1458.12 2302.67 1416.67 2250 1416.67" stroke="rgba(170, 170, 170, 1)" stroke-width="2"></path><path d="M750 3654.55C706.37 3654.55 654.55 3703.7 654.55 3750C654.55 3793.77 705.96 3834.68 750 3834.68C787.34 3834.68 817.31 3793.31 817.31 3750C817.31 3703.24 787.75 3654.55 750 3654.55" stroke="rgba(170, 170, 170, 1)" stroke-width="2"></path><path d="M1500 4469.59C1478.73 4469.59 1461.21 4483.87 1461.21 4500C1461.21 4517.52 1478.15 4536.89 1500 4536.89C1531.64 4536.89 1568.18 4517.14 1568.18 4500C1568.18 4483.49 1532.22 4469.59 1500 4469.59" stroke="rgba(170, 170, 170, 1)" stroke-width="2"></path><path d="M750 5863.64C682.92 5877.07 690 5935.75 690 6000C690 6041.43 704.5 6064.3 750 6075C1109.5 6159.54 1141.39 6215.72 1500 6190.48C1674.28 6178.22 1815.79 6089.84 1815.79 6000C1815.79 5913.52 1671.13 5859.73 1500 5837.84C1138.24 5791.55 1087.92 5795.99 750 5863.64" stroke="rgba(170, 170, 170, 1)" stroke-width="2"></path><path d="M1500 7357.76C1292.75 7357.76 1065.79 7396.44 1065.79 7500C1065.79 7620.34 1310.07 7805.56 1500 7805.56C1632.94 7805.56 1711.54 7632.81 1711.54 7500C1711.54 7408.91 1615.63 7357.76 1500 7357.76" stroke="rgba(170, 170, 170, 1)" stroke-width="2"></path><path d="M1500 9581.25C1426.96 9581.25 1339.29 9675.16 1339.29 9750C1339.29 9811.46 1424.11 9853.85 1500 9853.85C1560.72 9853.85 1612.5 9808.63 1612.5 9750C1612.5 9672.33 1563.57 9581.25 1500 9581.25" stroke="rgba(170, 170, 170, 1)" stroke-width="2"></path><path d="M0 312.5C91.07 118.21 148.54 84.59 351.56 0C523.54 -71.66 550.78 0 750 0C946.15 0 984.94 -85.59 1142.31 0C1359.94 118.36 1267.95 334.75 1500 407.89C1821.79 509.32 1909.33 465.89 2250 349.14C2504.44 261.94 2448.49 112.53 2690.22 0C2823.49 -62.04 2954.72 -109.61 3000 0C3109.61 265.39 3000 375 3000 750C3000 1125 3000 1125 3000 1500C3000 1644.23 3052.05 1788.46 3000 1788.46C2932.37 1788.46 2899.55 1623.98 2760.64 1500C2524.55 1289.28 2490.79 1119.05 2250 1119.05C2047.97 1119.05 1875 1308.77 1875 1500C1875 1692.8 2054.55 1701.94 2250 1887.1C2450.38 2076.94 2666.67 2055.24 2666.67 2250C2666.67 2471.06 2467.44 2493.34 2250 2718.75C2105.7 2868.34 1943.18 2861.68 1943.18 3000C1943.18 3134.66 2074 3264.71 2250 3264.71C2564.91 3264.71 2593.29 3142.59 2925 3000C2968.29 2981.39 2976.7 2942.31 3000 2942.31C3014.2 2942.31 3000 2971.15 3000 3000C3000 3375 3000 3375 3000 3750C3000 4125 3000 4125 3000 4500C3000 4752.72 3144 4967.54 3000 5005.43C2769 5066.22 2587.12 4894.67 2250 4697.37C2155.3 4641.95 2228.74 4559.26 2136.36 4500C1853.74 4318.69 1800.69 4216.22 1500 4216.22C1301.47 4216.22 1137.93 4349.47 1137.93 4500C1137.93 4663.49 1309.35 4683.36 1500 4844.26C1753.68 5058.36 2026.6 5059.07 2026.6 5250C2026.6 5429.17 1778.93 5574.53 1500 5584.46C1140.63 5597.25 1121.92 5446.23 750 5295.45C709.42 5279 692.15 5289.4 675 5250C519.07 4891.68 380.83 4841.62 403.85 4500C418.33 4285.17 585.39 4325.92 750 4137.1C912.31 3950.92 1057.69 3947.97 1057.69 3750C1057.69 3536.24 906.13 3530.17 750 3313.64C635.73 3155.17 640.23 3151.42 516.89 3000C265.23 2691.03 219.18 2710.88 0 2392.86C-39.27 2335.88 0 2321.43 0 2250C0 1875 0 1875 0 1500C0 1125 0 1125 0 750C0 531.25 -84.71 493.21 0 312.5" stroke="rgba(170, 170, 170, 1)" stroke-width="2"></path><path d="M750 1209.18C614.17 1209.18 481.13 1364.56 481.13 1500C481.13 1617.92 614.56 1715.91 750 1715.91C888.7 1715.91 1029.41 1618.28 1029.41 1500C1029.41 1364.91 888.31 1209.18 750 1209.18" stroke="rgba(170, 170, 170, 1)" stroke-width="2"></path><path d="M0 3516.89C98.23 3516.89 313.64 3624.05 313.64 3750C313.64 3889.31 92.9 4047.41 0 4047.41C-63.92 4047.41 0 3898.7 0 3750C0 3633.44 -58.59 3516.89 0 3516.89" stroke="rgba(170, 170, 170, 1)" stroke-width="2"></path><path d="M0 5467.74C124.24 5467.74 221.8 5732.41 440 6000C596.8 6192.29 540.09 6290.84 750 6387.5C1070.09 6534.89 1150.56 6566.18 1500 6488.1C1900.56 6398.6 1877.49 6273.98 2250 6052.33C2287.64 6029.93 2284.9 6025.81 2320.31 6000C2659.9 5752.49 2786.01 5505.68 3000 5505.68C3125.86 5505.68 3000 5752.84 3000 6000C3000 6375 3000 6375 3000 6750C3000 6933.51 3110.7 6999.4 3000 7117.02C2757.76 7374.4 2406.49 7215.05 2294.12 7500C2183.09 7781.54 2439.34 7870.31 2553.19 8250C2664.23 8620.31 2626.95 8631.93 2743.9 9000C2850.36 9335.05 2886.99 9325.29 3000 9656.25C3015.04 9700.29 3000 9703.13 3000 9750C3000 9818.18 3048.92 9843.97 3000 9886.36C2673.92 10168.97 2614.98 10132.01 2250 10400C2197.12 10438.83 2226.34 10491.73 2164.29 10500C1851.34 10541.73 1832.14 10500 1500 10500C1125 10500 1125 10500 750 10500C600 10500 555.63 10587.14 450 10500C180.63 10277.77 192.05 10201.34 0 9881.25C-32.95 9826.34 0 9815.63 0 9750C0 9687.5 -30.07 9678.27 0 9625C181.62 9303.27 377.47 9336.77 423.39 9000C471.22 8649.27 93.08 8499.33 187.5 8250C256.39 8068.08 478.49 8137.5 750 8137.5C853.49 8137.5 850.18 8184.51 937.5 8250C1225.18 8465.76 1264.86 8700 1500 8700C1666.64 8700 1613.55 8471.03 1741.07 8250C1959.71 7871.03 2254.02 7811.17 2192.31 7500C2133.49 7203.41 1874.26 7106.4 1500 7034.48C1153.1 6967.82 1083.64 7296.95 750 7222.83C443.4 7154.71 490.69 6979.07 219.51 6750C115.69 6662.3 34.67 6707.73 0 6589.29C-75.09 6332.73 0 6294.65 0 6000C0 5733.87 -95.76 5467.74 0 5467.74" stroke="rgba(170, 170, 170, 1)" stroke-width="2"></path><path d="M1500 9112.5C1224.07 9112.5 892.86 9467.26 892.86 9750C892.86 9982.16 1213.32 10142.31 1500 10142.31C1729.39 10142.31 1925 9971.49 1925 9750C1925 9456.59 1740.14 9112.5 1500 9112.5" stroke="rgba(170, 170, 170, 1)" stroke-width="2"></path><path d="M0 572.92C267.36 261.81 310.4 255.24 644.53 0C685.4 -31.22 697.26 0 750 0C801.92 0 817.92 -35.3 853.85 0C1192.92 333.12 1105.19 546.69 1500 736.84C1803.26 882.9 1876.23 668.47 2250 672.41C2501.23 675.05 2750 712.71 2750 750C2750 787.22 2452.41 691.46 2250 821.43C1868.42 1066.46 1791.25 1101.48 1582.03 1500C1416.25 1815.77 1546.16 2250 1500 2250C1453.68 2250 1564.94 1818.64 1397.06 1500C1189.94 1106.9 1070.3 826.53 750 826.53C435.45 826.53 402.65 1140.18 127.36 1500C27.65 1630.33 33.1 1806.82 0 1806.82C-30.58 1806.82 0 1653.41 0 1500C0 1125 0 1125 0 750C0 661.46 -54.9 636.81 0 572.92" stroke="rgba(170, 170, 170, 1)" stroke-width="2"></path><path d="M278.57 2250C278.57 2067.05 503.9 2000 750 2000C1114.61 2000 1125 2125 1500 2250C1500 2250 1500 2250 1500 2250C1508.53 2625 1353.32 2698.23 1517.05 3000C1728.32 3389.4 1842.4 3529.28 2250 3632.35C2583.87 3716.78 2745.41 3335.06 3000 3375C3120.41 3393.89 3000 3562.5 3000 3750C3000 4125 3000 4125 3000 4500C3000 4548.92 3028.54 4597.83 3000 4597.83C2942 4597.83 2902.53 4563.87 2826.92 4500C2527.53 4247.1 2589.78 4101.84 2250 3964.29C1926.32 3833.26 1842.13 4039.86 1500 3962.84C1366.17 3932.71 1333.18 3885.17 1298.08 3750C1208.18 3403.75 1414.05 3243.19 1250 3000C1140.01 2836.94 932.99 3078.78 750 2937.5C447.27 2703.78 278.57 2535.8 278.57 2250" stroke="rgba(170, 170, 170, 1)" stroke-width="2"></path><path d="M1500 2250C1500 2215.38 1884.96 2189.52 2250 2189.52C2294.68 2189.52 2319.44 2217.54 2319.44 2250C2319.44 2286.85 2299.88 2328.13 2250 2328.13C1890.16 2328.13 1500 2284.69 1500 2250" stroke="rgba(170, 170, 170, 1)" stroke-width="2"></path><path d="M692.31 4500C692.31 4464.58 720.29 4439.52 750 4439.52C781.47 4439.52 814.66 4463.73 814.66 4500C814.66 4560.93 780.89 4633.93 750 4633.93C719.71 4633.93 692.31 4561.79 692.31 4500" stroke="rgba(170, 170, 170, 1)" stroke-width="2"></path><path d="M1306.45 5250C1306.45 5204.38 1407.82 5151.64 1500 5151.64C1568.42 5151.64 1627.66 5203.71 1627.66 5250C1627.66 5293.43 1567.27 5331.08 1500 5331.08C1406.66 5331.08 1306.45 5294.1 1306.45 5250" stroke="rgba(170, 170, 170, 1)" stroke-width="2"></path><path d="M0 5770.16C53.65 5770.16 190 5882.73 190 6000C190 6124.88 52.74 6254.46 0 6254.46C-42.26 6254.46 0 6127.23 0 6000C0 5885.08 -41.35 5770.16 0 5770.16" stroke="rgba(170, 170, 170, 1)" stroke-width="2"></path><path d="M2906.25 6000C2952.79 5965.46 2970.48 5931.82 3000 5931.82C3017.36 5931.82 3000 5965.91 3000 6000C3000 6375 3000 6375 3000 6750C3000 6833.77 3067.57 6890.16 3000 6917.55C2692.57 7042.18 2609.62 7097.87 2250 7054.05C1922.12 7014.1 1625 6893.22 1625 6750C1625 6610.38 1959.77 6658.26 2250 6488.37C2600.4 6283.26 2577.79 6243.74 2906.25 6000" stroke="rgba(170, 170, 170, 1)" stroke-width="2"></path><path d="M676.83 6750C676.83 6722.65 707.25 6700 750 6700C958.12 6700 1178.57 6721.26 1178.57 6750C1178.57 6778.87 954.61 6815.22 750 6815.22C703.74 6815.22 676.83 6780.26 676.83 6750" stroke="rgba(170, 170, 170, 1)" stroke-width="2"></path><path d="M725.81 9000C725.81 8968.31 730.21 8937.5 750 8937.5C778.02 8937.5 821.43 8966.67 821.43 9000C821.43 9037.39 776.93 9078.95 750 9078.95C729.12 9078.95 725.81 9039.04 725.81 9000" stroke="rgba(170, 170, 170, 1)" stroke-width="2"></path><path d="M2178.57 9000C2179.89 8901.3 2222.33 8812.5 2250 8812.5C2276.34 8812.5 2283.42 8904.84 2286.59 9000C2299.04 9373.59 2298.62 9382.13 2281.25 9750C2280.32 9769.63 2262.88 9775 2250 9775C2241 9775 2238.78 9763.88 2237.5 9750C2203.06 9376.38 2173.64 9370.05 2178.57 9000" stroke="rgba(170, 170, 170, 1)" stroke-width="2"></path><path d="M1000 10500C1000 10482.61 1256.23 10430.77 1500 10430.77C1570.52 10430.77 1628.57 10481.59 1628.57 10500C1628.57 10516.21 1564.28 10500 1500 10500C1250 10500 1000 10517.23 1000 10500" stroke="rgba(170, 170, 170, 1)" stroke-width="2"></path></g><defs><mask id="SvgjsMask1007"><rect width="3000" height="10000" fill="#ffffff"></rect></mask></defs></svg>