<svg xmlns="http://www.w3.org/2000/svg" version="1.1" xmlns:xlink="http://www.w3.org/1999/xlink" xmlns:svgjs="http://svgjs.com/svgjs" width="1000" height="400" preserveAspectRatio="none" viewBox="0 0 1000 400"><g mask="url(&quot;#SvgjsMask1019&quot;)" fill="none"><rect width="1000" height="400" x="0" y="0" fill="rgba(127, 219, 138, 1)"></rect><path d="M258.2366495591571 377.451326185879L299.7311594562706 284.2531310418296 206.53296431222117 242.75862114471613 165.0384544151077 335.95681628876554z" fill="rgba(65, 174, 73, 0.4)" class="triangle-float1"></path><path d="M442.5128029366421 147.60539919006393L352.8936762589543 203.60564479583064 408.893921864721 293.22477147351844 498.5130485424088 237.22452586775177z" fill="rgba(65, 174, 73, 0.4)" class="triangle-float1"></path><path d="M511.5351748315495 74.34581532679928L601.783736210876 112.65405683147011 549.8434163362203-15.902746052527249z" fill="rgba(65, 174, 73, 0.4)" class="triangle-float1"></path><path d="M263.03616396221645 123.79224266378091L302.25463191486375 35.70612142595101 214.16851067703385-3.512346526696277 174.95004272438655 84.57377471113362z" fill="rgba(65, 174, 73, 0.4)" class="triangle-float2"></path><path d="M793.3244890632468 194.30401020676246L784.9609700718775 262.41940622941877 853.0763660945338 270.78292522078806 861.4398850859031 202.66752919813177z" fill="rgba(65, 174, 73, 0.4)" class="triangle-float1"></path><path d="M274.676,181.639C295.802,181.399,317.996,175.738,328.661,157.5C339.406,139.125,333.257,117.061,323.501,98.143C312.592,76.989,298.409,54.62,274.676,52.818C248.497,50.83,223.356,66.407,211.061,89.604C199.425,111.558,204.4,138.31,218.528,158.75C230.846,176.57,253.014,181.885,274.676,181.639" fill="rgba(65, 174, 73, 0.4)" class="triangle-float3"></path><path d="M879.3762273419645 234.31165922018295L810.6585841453549 187.96102362673074 764.3079485519027 256.67866682334034 833.0255917485123 303.0293024167926z" fill="rgba(65, 174, 73, 0.4)" class="triangle-float2"></path><path d="M198.95,267.001C212.657,267.335,228.148,265.183,234.748,253.165C241.207,241.403,233.206,228.212,226.696,216.478C219.884,204.198,212.969,189.456,198.95,188.636C184.058,187.765,171.862,199.648,164.945,212.864C158.543,225.095,158.711,239.8,166.054,251.49C172.966,262.493,185.96,266.684,198.95,267.001" fill="rgba(65, 174, 73, 0.4)" class="triangle-float3"></path><path d="M42.496,269.276C74.987,268.542,100.41,243.201,114.784,214.054C127.507,188.256,123.861,158.558,109.345,133.724C94.982,109.151,70.958,90.612,42.496,90.384C13.673,90.153,-11.132,108.087,-26.235,132.637C-42.21,158.605,-49.375,190.215,-35.675,217.451C-20.618,247.385,8.997,270.032,42.496,269.276" fill="rgba(65, 174, 73, 0.4)" class="triangle-float1"></path><path d="M915.0590669575677 296.79301144185774L924.2920422894737 231.09697831769316 849.363033833403 287.5600361099517z" fill="rgba(65, 174, 73, 0.4)" class="triangle-float1"></path><path d="M580.3463099690383 191.94193497519757L623.535058635844 130.2620096530127 518.6663846468534 148.7531863083918z" fill="rgba(65, 174, 73, 0.4)" class="triangle-float1"></path><path d="M246.251,531.376C282.837,531.34,304.652,493.923,320.672,461.031C334.333,432.982,336.31,401.966,323.03,373.735C307.136,339.948,283.555,304.439,246.251,302.827C207.121,301.136,173.758,331.14,157.052,366.565C142.465,397.496,155.296,431.103,171.574,461.179C189.002,493.381,209.635,531.412,246.251,531.376" fill="rgba(65, 174, 73, 0.4)" class="triangle-float2"></path><path d="M587.094,453.278C615.743,454.273,643.835,441.218,658.428,416.545C673.269,391.452,672.726,359.553,657.078,334.955C642.435,311.938,614.327,302.815,587.094,304.411C562.637,305.844,542.432,321.286,530.006,342.4C517.368,363.874,512.446,389.72,523.852,411.873C536.214,435.883,560.104,452.341,587.094,453.278" fill="rgba(65, 174, 73, 0.4)" class="triangle-float3"></path><path d="M943.5976644982617 113.08417788855415L1003.0324252081475 44.712306877160955 934.6605541967543-14.722453832724895 875.2257934868685 53.64941717866831z" fill="rgba(65, 174, 73, 0.4)" class="triangle-float3"></path></g><defs><mask id="SvgjsMask1019"><rect width="1000" height="400" fill="#ffffff"></rect></mask><style>
            @keyframes float1 {
                0%{transform: translate(0, 0)}
                50%{transform: translate(-10px, 0)}
                100%{transform: translate(0, 0)}
            }

            .triangle-float1 {
                animation: float1 5s infinite;
            }

            @keyframes float2 {
                0%{transform: translate(0, 0)}
                50%{transform: translate(-5px, -5px)}
                100%{transform: translate(0, 0)}
            }

            .triangle-float2 {
                animation: float2 4s infinite;
            }

            @keyframes float3 {
                0%{transform: translate(0, 0)}
                50%{transform: translate(0, -10px)}
                100%{transform: translate(0, 0)}
            }

            .triangle-float3 {
                animation: float3 6s infinite;
            }
        </style></defs></svg>