<svg xmlns="http://www.w3.org/2000/svg" version="1.1" xmlns:xlink="http://www.w3.org/1999/xlink" xmlns:svgjs="http://svgjs.com/svgjs" width="1000" height="400" preserveAspectRatio="none" viewBox="0 0 1000 400"><g mask="url(&quot;#SvgjsMask1013&quot;)" fill="none"><rect width="1000" height="400" x="0" y="0" fill="rgba(203, 106, 106, 1)"></rect><path d="M438.569,273.105C475.321,272.986,517.819,272.503,536.194,240.674C554.568,208.846,536.586,169.988,515.456,139.919C497.823,114.827,469.209,103.065,438.569,101.751C404.849,100.305,368.837,105.243,349.345,132.796C326.869,164.567,318.958,208.472,339.841,241.311C359.725,272.58,401.513,273.225,438.569,273.105" fill="rgba(174, 65, 65, 0.4)" class="triangle-float3"></path><path d="M131.631,238.446C164.821,238.376,198.116,224.161,213.659,194.835C228.443,166.941,217.031,134.624,201.106,107.365C185.365,80.421,162.809,55.731,131.631,54.429C98.473,53.044,68.119,72.487,51.318,101.107C34.297,130.1,32.031,166.16,49.002,195.182C65.823,223.947,98.309,238.516,131.631,238.446" fill="rgba(174, 65, 65, 0.4)" class="triangle-float2"></path><path d="M954.1207146437483 308.96834720354167L980.7243729972026 340.67335262241977 1014.9800519487926 284.91536238279923z" fill="rgba(174, 65, 65, 0.4)" class="triangle-float3"></path><path d="M367.4609825549753 70.14496886158312L378.8096534260355 30.567450147451275 313.7690399193076 33.33320319792695z" fill="rgba(174, 65, 65, 0.4)" class="triangle-float1"></path><path d="M951.2743939926085 354.30507961062153L950.1331169032992 285.1441852905111 897.7682586871668 315.3770502776717z" fill="rgba(174, 65, 65, 0.4)" class="triangle-float1"></path><path d="M580.4487089174027 276.0419086292818L634.9019835158225 277.94345887960407 610.527671592096 195.31277185681319z" fill="rgba(174, 65, 65, 0.4)" class="triangle-float1"></path><path d="M504.0604842349985 273.1298242181059L497.6385269299674 181.2915560840026 412.2222161008952 279.55178152313704z" fill="rgba(174, 65, 65, 0.4)" class="triangle-float1"></path><path d="M936.2470796025929 56.477384641866834L929.4929519386153-21.57936357722931 872.7131324964663 16.71910822127544z" fill="rgba(174, 65, 65, 0.4)" class="triangle-float1"></path><path d="M276.11305863014263-1.16023415131637L245.21228039880606-40.71142667676962 201.33588072629448 25.415336932961825z" fill="rgba(174, 65, 65, 0.4)" class="triangle-float1"></path><path d="M688.498,18.759C700.542,19.092,714.464,18.314,720.403,7.83C726.297,-2.574,719.036,-14.415,713.207,-24.855C707.152,-35.699,700.913,-48.961,688.498,-49.309C675.769,-49.666,667.165,-37.598,661.265,-26.313C655.884,-16.021,653.501,-3.792,659.507,6.148C665.348,15.815,677.207,18.447,688.498,18.759" fill="rgba(174, 65, 65, 0.4)" class="triangle-float2"></path><path d="M194.53617258305837 154.60575139142077L263.0079489950894 158.19420513674024 234.1547414070531 53.69231364603394z" fill="rgba(174, 65, 65, 0.4)" class="triangle-float1"></path><path d="M276.89551755648165 239.482439436907L192.80867340883924 284.19220754885725 237.51844152078954 368.27905169649966 321.6052856684319 323.5692835845494z" fill="rgba(174, 65, 65, 0.4)" class="triangle-float2"></path><path d="M588.8692762228638 279.389298375724L615.9900587644125 353.9030360065683 663.3830138537081 252.26851583417533z" fill="rgba(174, 65, 65, 0.4)" class="triangle-float2"></path><path d="M738.379,389.707C756.245,389.351,775.584,385.133,784.1,369.423C792.354,354.195,783.634,336.896,775.209,321.762C766.443,306.016,756.378,288.196,738.379,287.293C719.34,286.338,704.145,301.249,694.542,317.717C684.852,334.334,679.382,354.882,689.386,371.312C699.11,387.28,719.687,390.08,738.379,389.707" fill="rgba(174, 65, 65, 0.4)" class="triangle-float1"></path><path d="M223.44535061533304 343.48982734545325L176.0354072397606 273.2016957774304 105.74727567173775 320.61163915300284 153.1572190473102 390.8997707210257z" fill="rgba(174, 65, 65, 0.4)" class="triangle-float3"></path><path d="M505.986066613494 300.330957302123L430.0991488974851 232.0020696813312 361.7702612766933 307.8889873973401 437.6571789927022 376.2178750181319z" fill="rgba(174, 65, 65, 0.4)" class="triangle-float3"></path><path d="M769.505,522.366C810.364,523.489,844.575,495.684,865.97,460.857C888.608,424.006,903.733,377.586,881.076,340.747C859.091,305.002,811.47,304.156,769.505,304.012C727.171,303.867,677.777,303.32,656.598,339.976C635.413,376.643,659.519,419.788,681.808,455.794C702.512,489.24,730.184,521.285,769.505,522.366" fill="rgba(174, 65, 65, 0.4)" class="triangle-float1"></path></g><defs><mask id="SvgjsMask1013"><rect width="1000" height="400" fill="#ffffff"></rect></mask><style>
            @keyframes float1 {
                0%{transform: translate(0, 0)}
                50%{transform: translate(-10px, 0)}
                100%{transform: translate(0, 0)}
            }

            .triangle-float1 {
                animation: float1 5s infinite;
            }

            @keyframes float2 {
                0%{transform: translate(0, 0)}
                50%{transform: translate(-5px, -5px)}
                100%{transform: translate(0, 0)}
            }

            .triangle-float2 {
                animation: float2 4s infinite;
            }

            @keyframes float3 {
                0%{transform: translate(0, 0)}
                50%{transform: translate(0, -10px)}
                100%{transform: translate(0, 0)}
            }

            .triangle-float3 {
                animation: float3 6s infinite;
            }
        </style></defs></svg>