<?xml version="1.0" encoding="UTF-8"?>
<!-- <svg width="1200pt" height="1200pt" version="1.1" viewBox="0 0 1200 1200" xmlns="http://www.w3.org/2000/svg">
 <g>
  <path d="m1096.7 121.07c19.129 121.93-44.281 295.69-149.26 400.67l-403.47 403.46-251.41-251.41 403.46-403.46c104.99-104.98 278.75-168.38 400.68-149.26m34.668-34.668c-146.02-38.965-349.85 40.309-464.41 154.86l-432.53 432.53 309.54 309.54 432.53-432.53c114.56-114.55 193.84-318.39 154.87-464.4z"/>
  <path d="m887.5 332c26.219 26.219 26.219 68.891 0 95.113l-1.7891 1.7891c-26.219 26.219-68.891 26.219-95.113 0l-1.7891-1.7891c-26.219-26.219-26.219-68.891 0-95.113l1.7891-1.7891c26.219-26.219 68.891-26.219 95.113 0l1.7891 1.7891m29.062-29.062-1.7891-1.7891c-42.312-42.312-110.91-42.324-153.24 0l-1.7891 1.7891c-42.312 42.312-42.324 110.91 0 153.24l1.7891 1.7891c42.312 42.312 110.91 42.324 153.24 0l1.7891-1.7891c42.312-42.312 42.324-110.91 0-153.24z"/>
  <path d="m737.72 789.71-43.27-4.8594-28.98 258.43-488.52-488.52 256.59-31.516-5.3047-43.223-290.38 35.652-57.25 4.332 618.62 618.62 5.6289-55.957z"/>
  <path d="m373.98 874.74-30.875-30.875-153.97 153.97 30.875 30.875z"/>
  <path d="m297.84 798.74-32.641-32.637-92.328 92.328 32.641 32.637z"/>
  <path d="m452.24 953.14-32.637-32.629-92.328 92.328 32.637 32.629z"/>
 </g>
</svg> -->
<svg width="800px" height="800px" version="1.1" viewBox="0 0 800 800" xmlns="http://www.w3.org/2000/svg" style="width: 100%; height: 100%;">
 <g>
  <path d="m1096.7 121.07c19.129 121.93-44.281 295.69-149.26 400.67l-403.47 403.46-251.41-251.41 403.46-403.46c104.99-104.98 278.75-168.38 400.68-149.26m34.668-34.668c-146.02-38.965-349.85 40.309-464.41 154.86l-432.53 432.53 309.54 309.54 432.53-432.53c114.56-114.55 193.84-318.39 154.87-464.4z" style="fill: rgb(184, 91, 81); stroke: rgb(184, 91, 81);"></path>
  <path d="m887.5 332c26.219 26.219 26.219 68.891 0 95.113l-1.7891 1.7891c-26.219 26.219-68.891 26.219-95.113 0l-1.7891-1.7891c-26.219-26.219-26.219-68.891 0-95.113l1.7891-1.7891c26.219-26.219 68.891-26.219 95.113 0l1.7891 1.7891m29.062-29.062-1.7891-1.7891c-42.312-42.312-110.91-42.324-153.24 0l-1.7891 1.7891c-42.312 42.312-42.324 110.91 0 153.24l1.7891 1.7891c42.312 42.312 110.91 42.324 153.24 0l1.7891-1.7891c42.312-42.312 42.324-110.91 0-153.24z" style="fill: rgb(184, 91, 81); stroke: rgb(184, 91, 81);"></path>
  <path d="m737.72 789.71-43.27-4.8594-28.98 258.43-488.52-488.52 256.59-31.516-5.3047-43.223-290.38 35.652-57.25 4.332 618.62 618.62 5.6289-55.957z" style="fill: rgb(184, 91, 81); stroke: rgb(184, 91, 81);"></path>
  <path d="m373.98 874.74-30.875-30.875-153.97 153.97 30.875 30.875z" style="fill: rgb(184, 91, 81); stroke: rgb(184, 91, 81);"></path>
  <path d="m297.84 798.74-32.641-32.637-92.328 92.328 32.641 32.637z" style="fill: rgb(184, 91, 81); stroke: rgb(184, 91, 81);"></path>
  <path d="m452.24 953.14-32.637-32.629-92.328 92.328 32.637 32.629z" style="fill: rgb(184, 91, 81); stroke: rgb(184, 91, 81);"></path>
 </g>
</svg>

